<?xml version="1.0" standalone="no"?>
<!DOCTYPE svg PUBLIC "-//W3C//DTD SVG 20010904//EN"
 "http://www.w3.org/TR/2001/REC-SVG-20010904/DTD/svg10.dtd">
<svg version="1.0" xmlns="http://www.w3.org/2000/svg"
 width="1024.000000pt" height="1024.000000pt" viewBox="0 0 1024.000000 1024.000000"
 preserveAspectRatio="xMidYMid meet">

<g transform="translate(0.000000,1024.000000) scale(0.100000,-0.100000)"
fill="#000000" stroke="none">
<path d="M4895 7553 c-38 -8 -103 -30 -143 -49 -289 -133 -500 -429 -897
-1254 -70 -146 -213 -440 -317 -655 -105 -214 -273 -559 -373 -765 -286 -585
-375 -812 -432 -1098 -26 -131 -23 -347 5 -426 74 -202 234 -309 521 -347 221
-30 546 32 770 146 114 58 116 61 29 69 -178 16 -306 73 -418 186 -123 124
-178 254 -187 445 -14 290 113 621 340 885 146 172 360 317 552 376 83 26 104
28 260 28 129 1 187 -3 242 -16 427 -104 805 -407 1239 -994 65 -89 158 -215
205 -280 301 -415 527 -641 733 -734 119 -54 199 -72 351 -77 199 -7 332 25
423 102 45 38 39 61 -27 106 -166 115 -368 387 -574 775 -90 170 -431 889
-717 1514 -638 1393 -752 1627 -864 1777 -100 133 -237 233 -379 278 -92 30
-228 33 -342 8z m-10 -588 c63 -30 151 -116 208 -203 56 -84 144 -258 285
-567 61 -132 205 -446 321 -699 116 -252 211 -460 211 -461 0 -1 -73 36 -162
81 -339 173 -520 243 -723 280 -136 25 -405 25 -528 0 -245 -48 -496 -170
-712 -347 -72 -58 -190 -177 -238 -239 l-27 -35 14 50 c8 28 31 109 50 182 52
189 125 362 351 833 265 551 456 886 585 1023 58 62 135 113 194 128 46 11
115 1 171 -26z"/>
</g>
</svg>
